<svg xmlns="http://www.w3.org/2000/svg" version="1.1" xmlns:xlink="http://www.w3.org/1999/xlink" xmlns:svgjs="http://svgjs.dev/svgjs" width="1440" height="560" preserveAspectRatio="none" viewBox="0 0 1440 560">
    <g mask="url(&quot;#SvgjsMask1012&quot;)" fill="none">
        <rect width="1440" height="560" x="0" y="0" fill="rgba(255, 255, 255, 1)"></rect>
        <path d="M-111.05 381.16L-111.05 381.16" stroke="rgba(255, 151, 0, 0.3)" stroke-width="1.5"></path>
        <path d="M-111.05 381.16L-38.61 530" stroke="rgba(255, 151, 0, 0.3)" stroke-width="1.5"></path>
        <path d="M-111.05 381.16L108.91 360.94" stroke="rgba(255, 151, 0, 0.3)" stroke-width="1.5"></path>
        <path d="M-111.05 381.16L50.22 535.3" stroke="rgba(255, 151, 0, 0.3)" stroke-width="1.5"></path>
        <path d="M-111.05 381.16L-65.11 657.7" stroke="rgba(255, 151, 0, 0.3)" stroke-width="1.5"></path>
        <path d="M-38.61 530L-38.61 530" stroke="rgba(255, 151, 0, 0.3)" stroke-width="1.5"></path>
        <path d="M-38.61 530L50.22 535.3" stroke="rgba(255, 151, 0, 0.3)" stroke-width="1.5"></path>
        <path d="M-38.61 530L-65.11 657.7" stroke="rgba(255, 151, 0, 0.3)" stroke-width="1.5"></path>
        <path d="M-38.61 530L52.28 659.55" stroke="rgba(255, 151, 0, 0.3)" stroke-width="1.5"></path>
        <path d="M-65.11 657.7L-65.11 657.7" stroke="rgba(255, 151, 0, 0.3)" stroke-width="1.5"></path>
        <path d="M-65.11 657.7L52.28 659.55" stroke="rgba(255, 151, 0, 0.3)" stroke-width="1.5"></path>
        <path d="M-65.11 657.7L50.22 535.3" stroke="rgba(255, 151, 0, 0.3)" stroke-width="1.5"></path>
        <path d="M-65.11 657.7L196.6 547.28" stroke="rgba(255, 151, 0, 0.3)" stroke-width="1.5"></path>
        <path d="M-65.11 657.7L247.59 681.08" stroke="rgba(255, 151, 0, 0.3)" stroke-width="1.5"></path>
        <path d="M108.91 360.94L108.91 360.94" stroke="rgba(255, 151, 0, 0.3)" stroke-width="1.5"></path>
        <path d="M108.91 360.94L201.63 394.82" stroke="rgba(255, 151, 0, 0.3)" stroke-width="1.5"></path>
        <path d="M108.91 360.94L50.22 535.3" stroke="rgba(255, 151, 0, 0.3)" stroke-width="1.5"></path>
        <path d="M50.22 535.3L50.22 535.3" stroke="rgba(255, 151, 0, 0.3)" stroke-width="1.5"></path>
        <path d="M50.22 535.3L52.28 659.55" stroke="rgba(255, 151, 0, 0.3)" stroke-width="1.5"></path>
        <path d="M52.28 659.55L52.28 659.55" stroke="rgba(255, 151, 0, 0.3)" stroke-width="1.5"></path>
        <path d="M52.28 659.55L196.6 547.28" stroke="rgba(255, 151, 0, 0.3)" stroke-width="1.5"></path>
        <path d="M52.28 659.55L247.59 681.08" stroke="rgba(255, 151, 0, 0.3)" stroke-width="1.5"></path>
        <path d="M52.28 659.55L108.91 360.94" stroke="rgba(255, 151, 0, 0.3)" stroke-width="1.5"></path>
        <path d="M201.63 394.82L201.63 394.82" stroke="rgba(255, 151, 0, 0.3)" stroke-width="1.5"></path>
        <path d="M196.6 547.28L196.6 547.28" stroke="rgba(255, 151, 0, 0.3)" stroke-width="1.5"></path>
        <path d="M196.6 547.28L247.59 681.08" stroke="rgba(255, 151, 0, 0.3)" stroke-width="1.5"></path>
        <path d="M196.6 547.28L50.22 535.3" stroke="rgba(255, 151, 0, 0.3)" stroke-width="1.5"></path>
        <path d="M196.6 547.28L201.63 394.82" stroke="rgba(255, 151, 0, 0.3)" stroke-width="1.5"></path>
        <path d="M196.6 547.28L393.28 500.54" stroke="rgba(255, 151, 0, 0.3)" stroke-width="1.5"></path>
        <path d="M247.59 681.08L247.59 681.08" stroke="rgba(255, 151, 0, 0.3)" stroke-width="1.5"></path>
        <path d="M247.59 681.08L394.28 658.27" stroke="rgba(255, 151, 0, 0.3)" stroke-width="1.5"></path>
        <path d="M344.14 357.27L344.14 357.27" stroke="rgba(255, 151, 0, 0.3)" stroke-width="1.5"></path>
        <path d="M344.14 357.27L201.63 394.82" stroke="rgba(255, 151, 0, 0.3)" stroke-width="1.5"></path>
        <path d="M344.14 357.27L393.28 500.54" stroke="rgba(255, 151, 0, 0.3)" stroke-width="1.5"></path>
        <path d="M344.14 357.27L511.38 375.9" stroke="rgba(255, 151, 0, 0.3)" stroke-width="1.5"></path>
        <path d="M344.14 357.27L108.91 360.94" stroke="rgba(255, 151, 0, 0.3)" stroke-width="1.5"></path>
        <path d="M393.28 500.54L393.28 500.54" stroke="rgba(255, 151, 0, 0.3)" stroke-width="1.5"></path>
        <path d="M393.28 500.54L543.53 540.24" stroke="rgba(255, 151, 0, 0.3)" stroke-width="1.5"></path>
        <path d="M393.28 500.54L394.28 658.27" stroke="rgba(255, 151, 0, 0.3)" stroke-width="1.5"></path>
        <path d="M393.28 500.54L511.38 375.9" stroke="rgba(255, 151, 0, 0.3)" stroke-width="1.5"></path>
        <path d="M394.28 658.27L394.28 658.27" stroke="rgba(255, 151, 0, 0.3)" stroke-width="1.5"></path>
        <path d="M394.28 658.27L494.31 704.47" stroke="rgba(255, 151, 0, 0.3)" stroke-width="1.5"></path>
        <path d="M394.28 658.27L543.53 540.24" stroke="rgba(255, 151, 0, 0.3)" stroke-width="1.5"></path>
        <path d="M394.28 658.27L196.6 547.28" stroke="rgba(255, 151, 0, 0.3)" stroke-width="1.5"></path>
        <path d="M511.38 375.9L511.38 375.9" stroke="rgba(255, 151, 0, 0.3)" stroke-width="1.5"></path>
        <path d="M511.38 375.9L665.76 405.94" stroke="rgba(255, 151, 0, 0.3)" stroke-width="1.5"></path>
        <path d="M511.38 375.9L543.53 540.24" stroke="rgba(255, 151, 0, 0.3)" stroke-width="1.5"></path>
        <path d="M511.38 375.9L706.91 260.95" stroke="rgba(255, 151, 0, 0.3)" stroke-width="1.5"></path>
        <path d="M543.53 540.24L543.53 540.24" stroke="rgba(255, 151, 0, 0.3)" stroke-width="1.5"></path>
        <path d="M494.31 704.47L494.31 704.47" stroke="rgba(255, 151, 0, 0.3)" stroke-width="1.5"></path>
        <path d="M494.31 704.47L543.53 540.24" stroke="rgba(255, 151, 0, 0.3)" stroke-width="1.5"></path>
        <path d="M494.31 704.47L665.87 685.95" stroke="rgba(255, 151, 0, 0.3)" stroke-width="1.5"></path>
        <path d="M706.91 260.95L706.91 260.95" stroke="rgba(255, 151, 0, 0.3)" stroke-width="1.5"></path>
        <path d="M706.91 260.95L846.28 258.12" stroke="rgba(255, 151, 0, 0.3)" stroke-width="1.5"></path>
        <path d="M706.91 260.95L665.76 405.94" stroke="rgba(255, 151, 0, 0.3)" stroke-width="1.5"></path>
        <path d="M706.91 260.95L815.45 406.27" stroke="rgba(255, 151, 0, 0.3)" stroke-width="1.5"></path>
        <path d="M665.76 405.94L665.76 405.94" stroke="rgba(255, 151, 0, 0.3)" stroke-width="1.5"></path>
        <path d="M665.76 405.94L815.45 406.27" stroke="rgba(255, 151, 0, 0.3)" stroke-width="1.5"></path>
        <path d="M665.87 685.95L665.87 685.95" stroke="rgba(255, 151, 0, 0.3)" stroke-width="1.5"></path>
        <path d="M665.87 685.95L543.53 540.24" stroke="rgba(255, 151, 0, 0.3)" stroke-width="1.5"></path>
        <path d="M665.87 685.95L857.01 677.54" stroke="rgba(255, 151, 0, 0.3)" stroke-width="1.5"></path>
        <path d="M846.28 258.12L846.28 258.12" stroke="rgba(255, 151, 0, 0.3)" stroke-width="1.5"></path>
        <path d="M846.28 258.12L981.53 256.96" stroke="rgba(255, 151, 0, 0.3)" stroke-width="1.5"></path>
        <path d="M815.45 406.27L815.45 406.27" stroke="rgba(255, 151, 0, 0.3)" stroke-width="1.5"></path>
        <path d="M815.45 406.27L846.28 258.12" stroke="rgba(255, 151, 0, 0.3)" stroke-width="1.5"></path>
        <path d="M815.45 406.27L825.2 559.52" stroke="rgba(255, 151, 0, 0.3)" stroke-width="1.5"></path>
        <path d="M825.2 559.52L825.2 559.52" stroke="rgba(255, 151, 0, 0.3)" stroke-width="1.5"></path>
        <path d="M825.2 559.52L857.01 677.54" stroke="rgba(255, 151, 0, 0.3)" stroke-width="1.5"></path>
        <path d="M825.2 559.52L665.87 685.95" stroke="rgba(255, 151, 0, 0.3)" stroke-width="1.5"></path>
        <path d="M825.2 559.52L665.76 405.94" stroke="rgba(255, 151, 0, 0.3)" stroke-width="1.5"></path>
        <path d="M825.2 559.52L543.53 540.24" stroke="rgba(255, 151, 0, 0.3)" stroke-width="1.5"></path>
        <path d="M825.2 559.52L1114.89 549.6" stroke="rgba(255, 151, 0, 0.3)" stroke-width="1.5"></path>
        <path d="M857.01 677.54L857.01 677.54" stroke="rgba(255, 151, 0, 0.3)" stroke-width="1.5"></path>
        <path d="M857.01 677.54L1097.11 701.73" stroke="rgba(255, 151, 0, 0.3)" stroke-width="1.5"></path>
        <path d="M947.06 -45.47L947.06 -45.47" stroke="rgba(255, 151, 0, 0.3)" stroke-width="1.5"></path>
        <path d="M947.06 -45.47L960.04 80.98" stroke="rgba(255, 151, 0, 0.3)" stroke-width="1.5"></path>
        <path d="M947.06 -45.47L1105.55 -108.91" stroke="rgba(255, 151, 0, 0.3)" stroke-width="1.5"></path>
        <path d="M947.06 -45.47L1105.24 189.13" stroke="rgba(255, 151, 0, 0.3)" stroke-width="1.5"></path>
        <path d="M960.04 80.98L960.04 80.98" stroke="rgba(255, 151, 0, 0.3)" stroke-width="1.5"></path>
        <path d="M960.04 80.98L981.53 256.96" stroke="rgba(255, 151, 0, 0.3)" stroke-width="1.5"></path>
        <path d="M981.53 256.96L981.53 256.96" stroke="rgba(255, 151, 0, 0.3)" stroke-width="1.5"></path>
        <path d="M981.53 256.96L1105.24 189.13" stroke="rgba(255, 151, 0, 0.3)" stroke-width="1.5"></path>
        <path d="M981.53 256.96L1136.45 370.73" stroke="rgba(255, 151, 0, 0.3)" stroke-width="1.5"></path>
        <path d="M981.53 256.96L815.45 406.27" stroke="rgba(255, 151, 0, 0.3)" stroke-width="1.5"></path>
        <path d="M1105.55 -108.91L1105.55 -108.91" stroke="rgba(255, 151, 0, 0.3)" stroke-width="1.5"></path>
        <path d="M1105.55 -108.91L1274.24 -40.27" stroke="rgba(255, 151, 0, 0.3)" stroke-width="1.5"></path>
        <path d="M1105.55 -108.91L960.04 80.98" stroke="rgba(255, 151, 0, 0.3)" stroke-width="1.5"></path>
        <path d="M1105.55 -108.91L1271.46 89.75" stroke="rgba(255, 151, 0, 0.3)" stroke-width="1.5"></path>
        <path d="M1105.24 189.13L1105.24 189.13" stroke="rgba(255, 151, 0, 0.3)" stroke-width="1.5"></path>
        <path d="M1136.45 370.73L1136.45 370.73" stroke="rgba(255, 151, 0, 0.3)" stroke-width="1.5"></path>
        <path d="M1136.45 370.73L1255.78 353.71" stroke="rgba(255, 151, 0, 0.3)" stroke-width="1.5"></path>
        <path d="M1136.45 370.73L1114.89 549.6" stroke="rgba(255, 151, 0, 0.3)" stroke-width="1.5"></path>
        <path d="M1136.45 370.73L1105.24 189.13" stroke="rgba(255, 151, 0, 0.3)" stroke-width="1.5"></path>
        <path d="M1136.45 370.73L1307.37 260.97" stroke="rgba(255, 151, 0, 0.3)" stroke-width="1.5"></path>
        <path d="M1114.89 549.6L1114.89 549.6" stroke="rgba(255, 151, 0, 0.3)" stroke-width="1.5"></path>
        <path d="M1114.89 549.6L1097.11 701.73" stroke="rgba(255, 151, 0, 0.3)" stroke-width="1.5"></path>
        <path d="M1114.89 549.6L1291.78 546.27" stroke="rgba(255, 151, 0, 0.3)" stroke-width="1.5"></path>
        <path d="M1097.11 701.73L1097.11 701.73" stroke="rgba(255, 151, 0, 0.3)" stroke-width="1.5"></path>
        <path d="M1097.11 701.73L1297.93 666.99" stroke="rgba(255, 151, 0, 0.3)" stroke-width="1.5"></path>
        <path d="M1097.11 701.73L1291.78 546.27" stroke="rgba(255, 151, 0, 0.3)" stroke-width="1.5"></path>
        <path d="M1274.24 -40.27L1274.24 -40.27" stroke="rgba(255, 151, 0, 0.3)" stroke-width="1.5"></path>
        <path d="M1274.24 -40.27L1397.47 -73.48" stroke="rgba(255, 151, 0, 0.3)" stroke-width="1.5"></path>
        <path d="M1274.24 -40.27L1271.46 89.75" stroke="rgba(255, 151, 0, 0.3)" stroke-width="1.5"></path>
        <path d="M1274.24 -40.27L1430.82 42.81" stroke="rgba(255, 151, 0, 0.3)" stroke-width="1.5"></path>
        <path d="M1274.24 -40.27L1105.24 189.13" stroke="rgba(255, 151, 0, 0.3)" stroke-width="1.5"></path>
        <path d="M1274.24 -40.27L1307.37 260.97" stroke="rgba(255, 151, 0, 0.3)" stroke-width="1.5"></path>
        <path d="M1271.46 89.75L1271.46 89.75" stroke="rgba(255, 151, 0, 0.3)" stroke-width="1.5"></path>
        <path d="M1271.46 89.75L1430.82 42.81" stroke="rgba(255, 151, 0, 0.3)" stroke-width="1.5"></path>
        <path d="M1271.46 89.75L1307.37 260.97" stroke="rgba(255, 151, 0, 0.3)" stroke-width="1.5"></path>
        <path d="M1271.46 89.75L1105.24 189.13" stroke="rgba(255, 151, 0, 0.3)" stroke-width="1.5"></path>
        <path d="M1271.46 89.75L1397.47 -73.48" stroke="rgba(255, 151, 0, 0.3)" stroke-width="1.5"></path>
        <path d="M1307.37 260.97L1307.37 260.97" stroke="rgba(255, 151, 0, 0.3)" stroke-width="1.5"></path>
        <path d="M1307.37 260.97L1255.78 353.71" stroke="rgba(255, 151, 0, 0.3)" stroke-width="1.5"></path>
        <path d="M1307.37 260.97L1438.38 214.94" stroke="rgba(255, 151, 0, 0.3)" stroke-width="1.5"></path>
        <path d="M1307.37 260.97L1442.47 364.41" stroke="rgba(255, 151, 0, 0.3)" stroke-width="1.5"></path>
        <path d="M1307.37 260.97L1105.24 189.13" stroke="rgba(255, 151, 0, 0.3)" stroke-width="1.5"></path>
        <path d="M1255.78 353.71L1255.78 353.71" stroke="rgba(255, 151, 0, 0.3)" stroke-width="1.5"></path>
        <path d="M1255.78 353.71L1442.47 364.41" stroke="rgba(255, 151, 0, 0.3)" stroke-width="1.5"></path>
        <path d="M1255.78 353.71L1291.78 546.27" stroke="rgba(255, 151, 0, 0.3)" stroke-width="1.5"></path>
        <path d="M1255.78 353.71L1105.24 189.13" stroke="rgba(255, 151, 0, 0.3)" stroke-width="1.5"></path>
        <path d="M1291.78 546.27L1291.78 546.27" stroke="rgba(255, 151, 0, 0.3)" stroke-width="1.5"></path>
        <path d="M1291.78 546.27L1297.93 666.99" stroke="rgba(255, 151, 0, 0.3)" stroke-width="1.5"></path>
        <path d="M1291.78 546.27L1443.25 536.18" stroke="rgba(255, 151, 0, 0.3)" stroke-width="1.5"></path>
        <path d="M1297.93 666.99L1297.93 666.99" stroke="rgba(255, 151, 0, 0.3)" stroke-width="1.5"></path>
        <path d="M1297.93 666.99L1443.25 536.18" stroke="rgba(255, 151, 0, 0.3)" stroke-width="1.5"></path>
        <path d="M1297.93 666.99L1114.89 549.6" stroke="rgba(255, 151, 0, 0.3)" stroke-width="1.5"></path>
        <path d="M1297.93 666.99L1545.66 552.88" stroke="rgba(255, 151, 0, 0.3)" stroke-width="1.5"></path>
        <path d="M1297.93 666.99L1596.11 706.89" stroke="rgba(255, 151, 0, 0.3)" stroke-width="1.5"></path>
        <path d="M1397.47 -73.48L1397.47 -73.48" stroke="rgba(255, 151, 0, 0.3)" stroke-width="1.5"></path>
        <path d="M1397.47 -73.48L1430.82 42.81" stroke="rgba(255, 151, 0, 0.3)" stroke-width="1.5"></path>
        <path d="M1430.82 42.81L1430.82 42.81" stroke="rgba(255, 151, 0, 0.3)" stroke-width="1.5"></path>
        <path d="M1430.82 42.81L1438.38 214.94" stroke="rgba(255, 151, 0, 0.3)" stroke-width="1.5"></path>
        <path d="M1438.38 214.94L1438.38 214.94" stroke="rgba(255, 151, 0, 0.3)" stroke-width="1.5"></path>
        <path d="M1438.38 214.94L1442.47 364.41" stroke="rgba(255, 151, 0, 0.3)" stroke-width="1.5"></path>
        <path d="M1442.47 364.41L1442.47 364.41" stroke="rgba(255, 151, 0, 0.3)" stroke-width="1.5"></path>
        <path d="M1442.47 364.41L1443.25 536.18" stroke="rgba(255, 151, 0, 0.3)" stroke-width="1.5"></path>
        <path d="M1442.47 364.41L1606.28 232.49" stroke="rgba(255, 151, 0, 0.3)" stroke-width="1.5"></path>
        <path d="M1443.25 536.18L1443.25 536.18" stroke="rgba(255, 151, 0, 0.3)" stroke-width="1.5"></path>
        <path d="M1443.25 536.18L1545.66 552.88" stroke="rgba(255, 151, 0, 0.3)" stroke-width="1.5"></path>
        <path d="M1587.92 -58.31L1587.92 -58.31" stroke="rgba(255, 151, 0, 0.3)" stroke-width="1.5"></path>
        <path d="M1587.92 -58.31L1594.25 106.99" stroke="rgba(255, 151, 0, 0.3)" stroke-width="1.5"></path>
        <path d="M1587.92 -58.31L1430.82 42.81" stroke="rgba(255, 151, 0, 0.3)" stroke-width="1.5"></path>
        <path d="M1587.92 -58.31L1397.47 -73.48" stroke="rgba(255, 151, 0, 0.3)" stroke-width="1.5"></path>
        <path d="M1587.92 -58.31L1606.28 232.49" stroke="rgba(255, 151, 0, 0.3)" stroke-width="1.5"></path>
        <path d="M1587.92 -58.31L1438.38 214.94" stroke="rgba(255, 151, 0, 0.3)" stroke-width="1.5"></path>
        <path d="M1587.92 -58.31L1274.24 -40.27" stroke="rgba(255, 151, 0, 0.3)" stroke-width="1.5"></path>
        <path d="M1594.25 106.99L1594.25 106.99" stroke="rgba(255, 151, 0, 0.3)" stroke-width="1.5"></path>
        <path d="M1594.25 106.99L1606.28 232.49" stroke="rgba(255, 151, 0, 0.3)" stroke-width="1.5"></path>
        <path d="M1594.25 106.99L1430.82 42.81" stroke="rgba(255, 151, 0, 0.3)" stroke-width="1.5"></path>
        <path d="M1594.25 106.99L1438.38 214.94" stroke="rgba(255, 151, 0, 0.3)" stroke-width="1.5"></path>
        <path d="M1606.28 232.49L1606.28 232.49" stroke="rgba(255, 151, 0, 0.3)" stroke-width="1.5"></path>
        <path d="M1606.28 232.49L1438.38 214.94" stroke="rgba(255, 151, 0, 0.3)" stroke-width="1.5"></path>
        <path d="M1606.28 232.49L1430.82 42.81" stroke="rgba(255, 151, 0, 0.3)" stroke-width="1.5"></path>
        <path d="M1606.28 232.49L1307.37 260.97" stroke="rgba(255, 151, 0, 0.3)" stroke-width="1.5"></path>
        <path d="M1545.66 552.88L1545.66 552.88" stroke="rgba(255, 151, 0, 0.3)" stroke-width="1.5"></path>
        <path d="M1545.66 552.88L1596.11 706.89" stroke="rgba(255, 151, 0, 0.3)" stroke-width="1.5"></path>
        <path d="M1545.66 552.88L1442.47 364.41" stroke="rgba(255, 151, 0, 0.3)" stroke-width="1.5"></path>
        <path d="M1596.11 706.89L1596.11 706.89" stroke="rgba(255, 151, 0, 0.3)" stroke-width="1.5"></path>
        <path d="M1596.11 706.89L1443.25 536.18" stroke="rgba(255, 151, 0, 0.3)" stroke-width="1.5"></path>
        <circle r="5" cx="-111.05" cy="381.16" fill="rgba(255, 151, 0, 0.3)"></circle>
        <circle r="5" cx="-38.61" cy="530" fill="rgba(255, 151, 0, 0.3)"></circle>
        <circle r="5" cx="-65.11" cy="657.7" fill="rgba(255, 151, 0, 0.3)"></circle>
        <circle r="5" cx="108.91" cy="360.94" fill="rgba(255, 151, 0, 0.3)"></circle>
        <circle r="5" cx="50.22" cy="535.3" fill="rgba(255, 151, 0, 0.3)"></circle>
        <circle r="5" cx="52.28" cy="659.55" fill="rgba(255, 151, 0, 0.3)"></circle>
        <circle r="5" cx="201.63" cy="394.82" fill="rgba(255, 151, 0, 0.3)"></circle>
        <circle r="5" cx="196.6" cy="547.28" fill="rgba(255, 151, 0, 0.3)"></circle>
        <circle r="5" cx="247.59" cy="681.08" fill="rgba(255, 151, 0, 0.3)"></circle>
        <circle r="5" cx="344.14" cy="357.27" fill="rgba(255, 151, 0, 0.3)"></circle>
        <circle r="5" cx="393.28" cy="500.54" fill="rgba(255, 151, 0, 0.3)"></circle>
        <circle r="5" cx="394.28" cy="658.27" fill="rgba(255, 151, 0, 0.3)"></circle>
        <circle r="5" cx="511.38" cy="375.9" fill="rgba(255, 151, 0, 0.3)"></circle>
        <circle r="5" cx="543.53" cy="540.24" fill="rgba(255, 151, 0, 0.3)"></circle>
        <circle r="5" cx="494.31" cy="704.47" fill="rgba(255, 151, 0, 0.3)"></circle>
        <circle r="5" cx="706.91" cy="260.95" fill="rgba(255, 151, 0, 0.3)"></circle>
        <circle r="5" cx="665.76" cy="405.94" fill="rgba(255, 151, 0, 0.3)"></circle>
        <circle r="5" cx="665.87" cy="685.95" fill="rgba(255, 151, 0, 0.3)"></circle>
        <circle r="5" cx="846.28" cy="258.12" fill="rgba(255, 151, 0, 0.3)"></circle>
        <circle r="5" cx="815.45" cy="406.27" fill="rgba(255, 151, 0, 0.3)"></circle>
        <circle r="5" cx="825.2" cy="559.52" fill="rgba(255, 151, 0, 0.3)"></circle>
        <circle r="5" cx="857.01" cy="677.54" fill="rgba(255, 151, 0, 0.3)"></circle>
        <circle r="5" cx="947.06" cy="-45.47" fill="rgba(255, 151, 0, 0.3)"></circle>
        <circle r="5" cx="960.04" cy="80.98" fill="rgba(255, 151, 0, 0.3)"></circle>
        <circle r="5" cx="981.53" cy="256.96" fill="rgba(255, 151, 0, 0.3)"></circle>
        <circle r="5" cx="1105.55" cy="-108.91" fill="rgba(255, 151, 0, 0.3)"></circle>
        <circle r="5" cx="1105.24" cy="189.13" fill="rgba(255, 151, 0, 0.3)"></circle>
        <circle r="5" cx="1136.45" cy="370.73" fill="rgba(255, 151, 0, 0.3)"></circle>
        <circle r="5" cx="1114.89" cy="549.6" fill="rgba(255, 151, 0, 0.3)"></circle>
        <circle r="5" cx="1097.11" cy="701.73" fill="rgba(255, 151, 0, 0.3)"></circle>
        <circle r="5" cx="1274.24" cy="-40.27" fill="rgba(255, 151, 0, 0.3)"></circle>
        <circle r="5" cx="1271.46" cy="89.75" fill="rgba(255, 151, 0, 0.3)"></circle>
        <circle r="5" cx="1307.37" cy="260.97" fill="rgba(255, 151, 0, 0.3)"></circle>
        <circle r="5" cx="1255.78" cy="353.71" fill="rgba(255, 151, 0, 0.3)"></circle>
        <circle r="5" cx="1291.78" cy="546.27" fill="rgba(255, 151, 0, 0.3)"></circle>
        <circle r="5" cx="1297.93" cy="666.99" fill="rgba(255, 151, 0, 0.3)"></circle>
        <circle r="5" cx="1397.47" cy="-73.48" fill="rgba(255, 151, 0, 0.3)"></circle>
        <circle r="5" cx="1430.82" cy="42.81" fill="rgba(255, 151, 0, 0.3)"></circle>
        <circle r="5" cx="1438.38" cy="214.94" fill="rgba(255, 151, 0, 0.3)"></circle>
        <circle r="5" cx="1442.47" cy="364.41" fill="rgba(255, 151, 0, 0.3)"></circle>
        <circle r="5" cx="1443.25" cy="536.18" fill="rgba(255, 151, 0, 0.3)"></circle>
        <circle r="5" cx="1587.92" cy="-58.31" fill="rgba(255, 151, 0, 0.3)"></circle>
        <circle r="5" cx="1594.25" cy="106.99" fill="rgba(255, 151, 0, 0.3)"></circle>
        <circle r="5" cx="1606.28" cy="232.49" fill="rgba(255, 151, 0, 0.3)"></circle>
        <circle r="5" cx="1545.66" cy="552.88" fill="rgba(255, 151, 0, 0.3)"></circle>
        <circle r="5" cx="1596.11" cy="706.89" fill="rgba(255, 151, 0, 0.3)"></circle>
        <path d="M-39.1 667.98L-39.1 667.98" stroke="hsl(50.60000000000002, 100%, 65%)" stroke-width="1.5"></path>
        <path d="M-39.1 667.98L54.29 650.16" stroke="hsl(50.60000000000002, 100%, 65%)" stroke-width="1.5"></path>
        <path d="M-39.1 667.98L-102.03 543.73" stroke="hsl(50.60000000000002, 100%, 65%)" stroke-width="1.5"></path>
        <path d="M-39.1 667.98L56.11 530.27" stroke="hsl(50.60000000000002, 100%, 65%)" stroke-width="1.5"></path>
        <path d="M56.11 530.27L56.11 530.27" stroke="hsl(50.60000000000002, 100%, 65%)" stroke-width="1.5"></path>
        <path d="M56.11 530.27L54.29 650.16" stroke="hsl(50.60000000000002, 100%, 65%)" stroke-width="1.5"></path>
        <path d="M56.11 530.27L-102.03 543.73" stroke="hsl(50.60000000000002, 100%, 65%)" stroke-width="1.5"></path>
        <path d="M210.36 692.92L210.36 692.92" stroke="hsl(50.60000000000002, 100%, 65%)" stroke-width="1.5"></path>
        <path d="M210.36 692.92L242.55 553.73" stroke="hsl(50.60000000000002, 100%, 65%)" stroke-width="1.5"></path>
        <path d="M210.36 692.92L54.29 650.16" stroke="hsl(50.60000000000002, 100%, 65%)" stroke-width="1.5"></path>
        <path d="M210.36 692.92L395.12 693.28" stroke="hsl(50.60000000000002, 100%, 65%)" stroke-width="1.5"></path>
        <path d="M210.36 692.92L56.11 530.27" stroke="hsl(50.60000000000002, 100%, 65%)" stroke-width="1.5"></path>
        <path d="M827.4 694.13L827.4 694.13" stroke="hsl(50.60000000000002, 100%, 65%)" stroke-width="1.5"></path>
        <path d="M827.4 694.13L686.84 699.66" stroke="hsl(50.60000000000002, 100%, 65%)" stroke-width="1.5"></path>
        <path d="M827.4 694.13L815.64 497.44" stroke="hsl(50.60000000000002, 100%, 65%)" stroke-width="1.5"></path>
        <path d="M827.4 694.13L957.28 510.45" stroke="hsl(50.60000000000002, 100%, 65%)" stroke-width="1.5"></path>
        <path d="M827.4 694.13L709.19 497.36" stroke="hsl(50.60000000000002, 100%, 65%)" stroke-width="1.5"></path>
        <path d="M827.4 694.13L842.29 394.28" stroke="hsl(50.60000000000002, 100%, 65%)" stroke-width="1.5"></path>
        <path d="M827.4 694.13L1145.04 686.02" stroke="hsl(50.60000000000002, 100%, 65%)" stroke-width="1.5"></path>
        <path d="M957.28 510.45L957.28 510.45" stroke="hsl(50.60000000000002, 100%, 65%)" stroke-width="1.5"></path>
        <path d="M957.28 510.45L815.64 497.44" stroke="hsl(50.60000000000002, 100%, 65%)" stroke-width="1.5"></path>
        <path d="M957.28 510.45L842.29 394.28" stroke="hsl(50.60000000000002, 100%, 65%)" stroke-width="1.5"></path>
        <path d="M1249.81 -83.59L1249.81 -83.59" stroke="hsl(50.60000000000002, 100%, 65%)" stroke-width="1.5"></path>
        <path d="M1249.81 -83.59L1270.19 65.14" stroke="hsl(50.60000000000002, 100%, 65%)" stroke-width="1.5"></path>
        <path d="M1275.67 533.23L1275.67 533.23" stroke="hsl(50.60000000000002, 100%, 65%)" stroke-width="1.5"></path>
        <path d="M1275.67 533.23L1160.32 522.73" stroke="hsl(50.60000000000002, 100%, 65%)" stroke-width="1.5"></path>
        <path d="M1275.67 533.23L1289.31 670.54" stroke="hsl(50.60000000000002, 100%, 65%)" stroke-width="1.5"></path>
        <path d="M1275.67 533.23L1416.22 542.02" stroke="hsl(50.60000000000002, 100%, 65%)" stroke-width="1.5"></path>
        <path d="M1289.31 670.54L1289.31 670.54" stroke="hsl(50.60000000000002, 100%, 65%)" stroke-width="1.5"></path>
        <path d="M1289.31 670.54L1424.33 687.97" stroke="hsl(50.60000000000002, 100%, 65%)" stroke-width="1.5"></path>
        <path d="M1581.26 72.02L1581.26 72.02" stroke="hsl(50.60000000000002, 100%, 65%)" stroke-width="1.5"></path>
        <path d="M1581.26 72.02L1443.69 89.74" stroke="hsl(50.60000000000002, 100%, 65%)" stroke-width="1.5"></path>
        <path d="M1581.26 72.02L1592.19 -73.49" stroke="hsl(50.60000000000002, 100%, 65%)" stroke-width="1.5"></path>
        <path d="M1581.26 72.02L1444.39 -46.69" stroke="hsl(50.60000000000002, 100%, 65%)" stroke-width="1.5"></path>
        <path d="M1543.24 256.82L1543.24 256.82" stroke="hsl(50.60000000000002, 100%, 65%)" stroke-width="1.5"></path>
        <path d="M1543.24 256.82L1452.14 228.14" stroke="hsl(50.60000000000002, 100%, 65%)" stroke-width="1.5"></path>
        <path d="M1543.24 256.82L1594.83 367.68" stroke="hsl(50.60000000000002, 100%, 65%)" stroke-width="1.5"></path>
        <path d="M1543.24 256.82L1581.26 72.02" stroke="hsl(50.60000000000002, 100%, 65%)" stroke-width="1.5"></path>
        <path d="M1543.24 256.82L1443.69 89.74" stroke="hsl(50.60000000000002, 100%, 65%)" stroke-width="1.5"></path>
        <path d="M1543.24 256.82L1285.53 390.57" stroke="hsl(50.60000000000002, 100%, 65%)" stroke-width="1.5"></path>
        <path d="M1543.24 256.82L1244.06 216.62" stroke="hsl(50.60000000000002, 100%, 65%)" stroke-width="1.5"></path>
        <path d="M1560.99 690.17L1560.99 690.17" stroke="hsl(50.60000000000002, 100%, 65%)" stroke-width="1.5"></path>
        <path d="M1560.99 690.17L1424.33 687.97" stroke="hsl(50.60000000000002, 100%, 65%)" stroke-width="1.5"></path>
        <path d="M1560.99 690.17L1606.12 558.98" stroke="hsl(50.60000000000002, 100%, 65%)" stroke-width="1.5"></path>
        <path d="M1560.99 690.17L1416.22 542.02" stroke="hsl(50.60000000000002, 100%, 65%)" stroke-width="1.5"></path>
        <path d="M1560.99 690.17L1289.31 670.54" stroke="hsl(50.60000000000002, 100%, 65%)" stroke-width="1.5"></path>
        <path d="M-102.03 543.73L-102.03 543.73" stroke="hsl(50.60000000000002, 100%, 65%)" stroke-width="1.5"></path>
        <path d="M-102.03 543.73L54.29 650.16" stroke="hsl(50.60000000000002, 100%, 65%)" stroke-width="1.5"></path>
        <path d="M-102.03 543.73L242.55 553.73" stroke="hsl(50.60000000000002, 100%, 65%)" stroke-width="1.5"></path>
        <path d="M54.29 650.16L54.29 650.16" stroke="hsl(50.60000000000002, 100%, 65%)" stroke-width="1.5"></path>
        <path d="M242.55 553.73L242.55 553.73" stroke="hsl(50.60000000000002, 100%, 65%)" stroke-width="1.5"></path>
        <path d="M242.55 553.73L350.22 509.92" stroke="hsl(50.60000000000002, 100%, 65%)" stroke-width="1.5"></path>
        <path d="M242.55 553.73L56.11 530.27" stroke="hsl(50.60000000000002, 100%, 65%)" stroke-width="1.5"></path>
        <path d="M242.55 553.73L395.12 693.28" stroke="hsl(50.60000000000002, 100%, 65%)" stroke-width="1.5"></path>
        <path d="M242.55 553.73L54.29 650.16" stroke="hsl(50.60000000000002, 100%, 65%)" stroke-width="1.5"></path>
        <path d="M242.55 553.73L490.4 645.71" stroke="hsl(50.60000000000002, 100%, 65%)" stroke-width="1.5"></path>
        <path d="M350.22 509.92L350.22 509.92" stroke="hsl(50.60000000000002, 100%, 65%)" stroke-width="1.5"></path>
        <path d="M350.22 509.92L538.42 507.59" stroke="hsl(50.60000000000002, 100%, 65%)" stroke-width="1.5"></path>
        <path d="M395.12 693.28L395.12 693.28" stroke="hsl(50.60000000000002, 100%, 65%)" stroke-width="1.5"></path>
        <path d="M395.12 693.28L490.4 645.71" stroke="hsl(50.60000000000002, 100%, 65%)" stroke-width="1.5"></path>
        <path d="M395.12 693.28L350.22 509.92" stroke="hsl(50.60000000000002, 100%, 65%)" stroke-width="1.5"></path>
        <path d="M538.42 507.59L538.42 507.59" stroke="hsl(50.60000000000002, 100%, 65%)" stroke-width="1.5"></path>
        <path d="M538.42 507.59L490.4 645.71" stroke="hsl(50.60000000000002, 100%, 65%)" stroke-width="1.5"></path>
        <path d="M538.42 507.59L709.19 497.36" stroke="hsl(50.60000000000002, 100%, 65%)" stroke-width="1.5"></path>
        <path d="M538.42 507.59L395.12 693.28" stroke="hsl(50.60000000000002, 100%, 65%)" stroke-width="1.5"></path>
        <path d="M538.42 507.59L686.84 699.66" stroke="hsl(50.60000000000002, 100%, 65%)" stroke-width="1.5"></path>
        <path d="M538.42 507.59L815.64 497.44" stroke="hsl(50.60000000000002, 100%, 65%)" stroke-width="1.5"></path>
        <path d="M490.4 645.71L490.4 645.71" stroke="hsl(50.60000000000002, 100%, 65%)" stroke-width="1.5"></path>
        <path d="M490.4 645.71L350.22 509.92" stroke="hsl(50.60000000000002, 100%, 65%)" stroke-width="1.5"></path>
        <path d="M490.4 645.71L686.84 699.66" stroke="hsl(50.60000000000002, 100%, 65%)" stroke-width="1.5"></path>
        <path d="M490.4 645.71L709.19 497.36" stroke="hsl(50.60000000000002, 100%, 65%)" stroke-width="1.5"></path>
        <path d="M709.19 497.36L709.19 497.36" stroke="hsl(50.60000000000002, 100%, 65%)" stroke-width="1.5"></path>
        <path d="M709.19 497.36L815.64 497.44" stroke="hsl(50.60000000000002, 100%, 65%)" stroke-width="1.5"></path>
        <path d="M709.19 497.36L842.29 394.28" stroke="hsl(50.60000000000002, 100%, 65%)" stroke-width="1.5"></path>
        <path d="M709.19 497.36L686.84 699.66" stroke="hsl(50.60000000000002, 100%, 65%)" stroke-width="1.5"></path>
        <path d="M686.84 699.66L686.84 699.66" stroke="hsl(50.60000000000002, 100%, 65%)" stroke-width="1.5"></path>
        <path d="M686.84 699.66L815.64 497.44" stroke="hsl(50.60000000000002, 100%, 65%)" stroke-width="1.5"></path>
        <path d="M842.29 394.28L842.29 394.28" stroke="hsl(50.60000000000002, 100%, 65%)" stroke-width="1.5"></path>
        <path d="M842.29 394.28L815.64 497.44" stroke="hsl(50.60000000000002, 100%, 65%)" stroke-width="1.5"></path>
        <path d="M842.29 394.28L980.73 346.94" stroke="hsl(50.60000000000002, 100%, 65%)" stroke-width="1.5"></path>
        <path d="M815.64 497.44L815.64 497.44" stroke="hsl(50.60000000000002, 100%, 65%)" stroke-width="1.5"></path>
        <path d="M980.73 346.94L980.73 346.94" stroke="hsl(50.60000000000002, 100%, 65%)" stroke-width="1.5"></path>
        <path d="M980.73 346.94L1111.89 410.37" stroke="hsl(50.60000000000002, 100%, 65%)" stroke-width="1.5"></path>
        <path d="M1111.89 410.37L1111.89 410.37" stroke="hsl(50.60000000000002, 100%, 65%)" stroke-width="1.5"></path>
        <path d="M1111.89 410.37L1160.32 522.73" stroke="hsl(50.60000000000002, 100%, 65%)" stroke-width="1.5"></path>
        <path d="M1111.89 410.37L1285.53 390.57" stroke="hsl(50.60000000000002, 100%, 65%)" stroke-width="1.5"></path>
        <path d="M1160.32 522.73L1160.32 522.73" stroke="hsl(50.60000000000002, 100%, 65%)" stroke-width="1.5"></path>
        <path d="M1145.04 686.02L1145.04 686.02" stroke="hsl(50.60000000000002, 100%, 65%)" stroke-width="1.5"></path>
        <path d="M1145.04 686.02L1289.31 670.54" stroke="hsl(50.60000000000002, 100%, 65%)" stroke-width="1.5"></path>
        <path d="M1145.04 686.02L1160.32 522.73" stroke="hsl(50.60000000000002, 100%, 65%)" stroke-width="1.5"></path>
        <path d="M1145.04 686.02L1275.67 533.23" stroke="hsl(50.60000000000002, 100%, 65%)" stroke-width="1.5"></path>
        <path d="M1145.04 686.02L957.28 510.45" stroke="hsl(50.60000000000002, 100%, 65%)" stroke-width="1.5"></path>
        <path d="M1145.04 686.02L1111.89 410.37" stroke="hsl(50.60000000000002, 100%, 65%)" stroke-width="1.5"></path>
        <path d="M1145.04 686.02L1424.33 687.97" stroke="hsl(50.60000000000002, 100%, 65%)" stroke-width="1.5"></path>
        <path d="M1270.19 65.14L1270.19 65.14" stroke="hsl(50.60000000000002, 100%, 65%)" stroke-width="1.5"></path>
        <path d="M1270.19 65.14L1244.06 216.62" stroke="hsl(50.60000000000002, 100%, 65%)" stroke-width="1.5"></path>
        <path d="M1270.19 65.14L1443.69 89.74" stroke="hsl(50.60000000000002, 100%, 65%)" stroke-width="1.5"></path>
        <path d="M1244.06 216.62L1244.06 216.62" stroke="hsl(50.60000000000002, 100%, 65%)" stroke-width="1.5"></path>
        <path d="M1244.06 216.62L1285.53 390.57" stroke="hsl(50.60000000000002, 100%, 65%)" stroke-width="1.5"></path>
        <path d="M1244.06 216.62L1452.14 228.14" stroke="hsl(50.60000000000002, 100%, 65%)" stroke-width="1.5"></path>
        <path d="M1244.06 216.62L1111.89 410.37" stroke="hsl(50.60000000000002, 100%, 65%)" stroke-width="1.5"></path>
        <path d="M1285.53 390.57L1285.53 390.57" stroke="hsl(50.60000000000002, 100%, 65%)" stroke-width="1.5"></path>
        <path d="M1285.53 390.57L1275.67 533.23" stroke="hsl(50.60000000000002, 100%, 65%)" stroke-width="1.5"></path>
        <path d="M1444.39 -46.69L1444.39 -46.69" stroke="hsl(50.60000000000002, 100%, 65%)" stroke-width="1.5"></path>
        <path d="M1444.39 -46.69L1443.69 89.74" stroke="hsl(50.60000000000002, 100%, 65%)" stroke-width="1.5"></path>
        <path d="M1444.39 -46.69L1592.19 -73.49" stroke="hsl(50.60000000000002, 100%, 65%)" stroke-width="1.5"></path>
        <path d="M1444.39 -46.69L1249.81 -83.59" stroke="hsl(50.60000000000002, 100%, 65%)" stroke-width="1.5"></path>
        <path d="M1444.39 -46.69L1270.19 65.14" stroke="hsl(50.60000000000002, 100%, 65%)" stroke-width="1.5"></path>
        <path d="M1444.39 -46.69L1452.14 228.14" stroke="hsl(50.60000000000002, 100%, 65%)" stroke-width="1.5"></path>
        <path d="M1443.69 89.74L1443.69 89.74" stroke="hsl(50.60000000000002, 100%, 65%)" stroke-width="1.5"></path>
        <path d="M1443.69 89.74L1452.14 228.14" stroke="hsl(50.60000000000002, 100%, 65%)" stroke-width="1.5"></path>
        <path d="M1452.14 228.14L1452.14 228.14" stroke="hsl(50.60000000000002, 100%, 65%)" stroke-width="1.5"></path>
        <path d="M1452.14 228.14L1594.83 367.68" stroke="hsl(50.60000000000002, 100%, 65%)" stroke-width="1.5"></path>
        <path d="M1452.14 228.14L1581.26 72.02" stroke="hsl(50.60000000000002, 100%, 65%)" stroke-width="1.5"></path>
        <path d="M1416.22 542.02L1416.22 542.02" stroke="hsl(50.60000000000002, 100%, 65%)" stroke-width="1.5"></path>
        <path d="M1416.22 542.02L1424.33 687.97" stroke="hsl(50.60000000000002, 100%, 65%)" stroke-width="1.5"></path>
        <path d="M1416.22 542.02L1289.31 670.54" stroke="hsl(50.60000000000002, 100%, 65%)" stroke-width="1.5"></path>
        <path d="M1416.22 542.02L1606.12 558.98" stroke="hsl(50.60000000000002, 100%, 65%)" stroke-width="1.5"></path>
        <path d="M1424.33 687.97L1424.33 687.97" stroke="hsl(50.60000000000002, 100%, 65%)" stroke-width="1.5"></path>
        <path d="M1424.33 687.97L1275.67 533.23" stroke="hsl(50.60000000000002, 100%, 65%)" stroke-width="1.5"></path>
        <path d="M1424.33 687.97L1606.12 558.98" stroke="hsl(50.60000000000002, 100%, 65%)" stroke-width="1.5"></path>
        <path d="M1592.19 -73.49L1592.19 -73.49" stroke="hsl(50.60000000000002, 100%, 65%)" stroke-width="1.5"></path>
        <path d="M1592.19 -73.49L1443.69 89.74" stroke="hsl(50.60000000000002, 100%, 65%)" stroke-width="1.5"></path>
        <path d="M1592.19 -73.49L1452.14 228.14" stroke="hsl(50.60000000000002, 100%, 65%)" stroke-width="1.5"></path>
        <path d="M1592.19 -73.49L1543.24 256.82" stroke="hsl(50.60000000000002, 100%, 65%)" stroke-width="1.5"></path>
        <path d="M1592.19 -73.49L1249.81 -83.59" stroke="hsl(50.60000000000002, 100%, 65%)" stroke-width="1.5"></path>
        <path d="M1594.83 367.68L1594.83 367.68" stroke="hsl(50.60000000000002, 100%, 65%)" stroke-width="1.5"></path>
        <path d="M1594.83 367.68L1606.12 558.98" stroke="hsl(50.60000000000002, 100%, 65%)" stroke-width="1.5"></path>
        <path d="M1594.83 367.68L1416.22 542.02" stroke="hsl(50.60000000000002, 100%, 65%)" stroke-width="1.5"></path>
        <path d="M1594.83 367.68L1581.26 72.02" stroke="hsl(50.60000000000002, 100%, 65%)" stroke-width="1.5"></path>
        <path d="M1594.83 367.68L1285.53 390.57" stroke="hsl(50.60000000000002, 100%, 65%)" stroke-width="1.5"></path>
        <path d="M1606.12 558.98L1606.12 558.98" stroke="hsl(50.60000000000002, 100%, 65%)" stroke-width="1.5"></path>
        <circle r="25" cx="-39.1" cy="667.98" fill="url(&quot;#SvgjsRadialGradient1013&quot;)"></circle>
        <circle r="25" cx="56.11" cy="530.27" fill="url(&quot;#SvgjsRadialGradient1013&quot;)"></circle>
        <circle r="25" cx="210.36" cy="692.92" fill="url(&quot;#SvgjsRadialGradient1013&quot;)"></circle>
        <circle r="25" cx="827.4" cy="694.13" fill="url(&quot;#SvgjsRadialGradient1013&quot;)"></circle>
        <circle r="25" cx="957.28" cy="510.45" fill="url(&quot;#SvgjsRadialGradient1013&quot;)"></circle>
        <circle r="25" cx="1249.81" cy="-83.59" fill="url(&quot;#SvgjsRadialGradient1013&quot;)"></circle>
        <circle r="25" cx="1275.67" cy="533.23" fill="url(&quot;#SvgjsRadialGradient1013&quot;)"></circle>
        <circle r="25" cx="1289.31" cy="670.54" fill="url(&quot;#SvgjsRadialGradient1013&quot;)"></circle>
        <circle r="25" cx="1581.26" cy="72.02" fill="url(&quot;#SvgjsRadialGradient1013&quot;)"></circle>
        <circle r="25" cx="1543.24" cy="256.82" fill="url(&quot;#SvgjsRadialGradient1013&quot;)"></circle>
        <circle r="25" cx="1560.99" cy="690.17" fill="url(&quot;#SvgjsRadialGradient1013&quot;)"></circle>
        <circle r="5" cx="-102.03" cy="543.73" fill="#ffeb80"></circle>
        <circle r="5" cx="54.29" cy="650.16" fill="#ffeb80"></circle>
        <circle r="5" cx="242.55" cy="553.73" fill="#ffeb80"></circle>
        <circle r="5" cx="350.22" cy="509.92" fill="#ffeb80"></circle>
        <circle r="5" cx="395.12" cy="693.28" fill="#ffeb80"></circle>
        <circle r="5" cx="538.42" cy="507.59" fill="#ffeb80"></circle>
        <circle r="5" cx="490.4" cy="645.71" fill="#ffeb80"></circle>
        <circle r="5" cx="709.19" cy="497.36" fill="#ffeb80"></circle>
        <circle r="5" cx="686.84" cy="699.66" fill="#ffeb80"></circle>
        <circle r="5" cx="842.29" cy="394.28" fill="#ffeb80"></circle>
        <circle r="5" cx="815.64" cy="497.44" fill="#ffeb80"></circle>
        <circle r="5" cx="980.73" cy="346.94" fill="#ffeb80"></circle>
        <circle r="5" cx="1111.89" cy="410.37" fill="#ffeb80"></circle>
        <circle r="5" cx="1160.32" cy="522.73" fill="#ffeb80"></circle>
        <circle r="5" cx="1145.04" cy="686.02" fill="#ffeb80"></circle>
        <circle r="5" cx="1270.19" cy="65.14" fill="#ffeb80"></circle>
        <circle r="5" cx="1244.06" cy="216.62" fill="#ffeb80"></circle>
        <circle r="5" cx="1285.53" cy="390.57" fill="#ffeb80"></circle>
        <circle r="5" cx="1444.39" cy="-46.69" fill="#ffeb80"></circle>
        <circle r="5" cx="1443.69" cy="89.74" fill="#ffeb80"></circle>
        <circle r="5" cx="1452.14" cy="228.14" fill="#ffeb80"></circle>
        <circle r="5" cx="1416.22" cy="542.02" fill="#ffeb80"></circle>
        <circle r="5" cx="1424.33" cy="687.97" fill="#ffeb80"></circle>
        <circle r="5" cx="1592.19" cy="-73.49" fill="#ffeb80"></circle>
        <circle r="5" cx="1594.83" cy="367.68" fill="#ffeb80"></circle>
        <circle r="5" cx="1606.12" cy="558.98" fill="#ffeb80"></circle>
    </g>
    <defs>
        <mask id="SvgjsMask1012">
            <rect width="1440" height="560" fill="#ffffff"></rect>
        </mask>
        <radialGradient id="SvgjsRadialGradient1013">
            <stop stop-color="#ffffff" offset="0.1"></stop>
            <stop stop-color="rgba(255, 215, 0, 1)" offset="0.2"></stop>
            <stop stop-color="rgba(255, 215, 0, 0)" offset="1"></stop>
        </radialGradient>
    </defs>
</svg>